<?xml version="1.0" standalone="no"?>
<!DOCTYPE svg PUBLIC "-//W3C//DTD SVG 1.0//EN" 
  "http://www.w3.org/Graphics/SVG/1.0/DTD/svg10.dtd">
<svg 
   xmlns="http://www.w3.org/2000/svg"
   xmlns:xlink="http://www.w3.org/1999/xlink"
   version="1.0"
   width="300"
   height="1000"
   id="svg2">
  <defs
     id="defs4">
    <linearGradient
       x1="197.5"
       y1="314.11218"
       x2="281"
       y2="314.11218"
       id="linearGradient39463"
       xlink:href="#linearGradient10908"
       gradientUnits="userSpaceOnUse"
       gradientTransform="matrix(0.903026,0,0,1.002973,22.70102,13.56614)" />
    <linearGradient
       x1="187.5625"
       y1="671.65625"
       x2="292.15625"
       y2="671.65625"
       id="linearGradient39461"
       xlink:href="#linearGradient10908"
       gradientUnits="userSpaceOnUse"
       gradientTransform="translate(0,14)" />
    <linearGradient
       id="linearGradient55705">
      <stop
         style="stop-color:#a40000;stop-opacity:1"
         offset="0"
         id="stop55707" />
      <stop
         style="stop-color:#d3d7cf;stop-opacity:1"
         offset="1"
         id="stop55709" />
    </linearGradient>
    <linearGradient
       id="linearGradient51272">
      <stop
         style="stop-color:#4e9a06;stop-opacity:1"
         offset="0"
         id="stop51274" />
      <stop
         style="stop-color:#8ae234;stop-opacity:1"
         offset="1"
         id="stop51276" />
    </linearGradient>
    <linearGradient
       id="linearGradient43948">
      <stop
         style="stop-color:#729fcf;stop-opacity:1"
         offset="0"
         id="stop43950" />
      <stop
         style="stop-color:#204a87;stop-opacity:1"
         offset="1"
         id="stop43952" />
    </linearGradient>
    <linearGradient
       id="linearGradient32231">
      <stop
         style="stop-color:#e1e1e1;stop-opacity:1"
         offset="0"
         id="stop32233" />
      <stop
         style="stop-color:#f3f3ee;stop-opacity:1"
         offset="1"
         id="stop32235" />
    </linearGradient>
    <linearGradient
       id="linearGradient31340">
      <stop
         style="stop-color:#e1e1e1;stop-opacity:1"
         offset="0"
         id="stop31342" />
      <stop
         style="stop-color:white;stop-opacity:1"
         offset="1"
         id="stop31344" />
    </linearGradient>
    <linearGradient
       id="linearGradient8129">
      <stop
         style="stop-color:#d3d7cf;stop-opacity:1"
         offset="0"
         id="stop8131" />
      <stop
         style="stop-color:#d3d7cf;stop-opacity:0"
         offset="1"
         id="stop8133" />
    </linearGradient>
    <linearGradient
       id="linearGradient10908">
      <stop
         style="stop-color:#d3d7cf;stop-opacity:1"
         offset="0"
         id="stop10910" />
      <stop
         style="stop-color:white;stop-opacity:1"
         offset="1"
         id="stop10912" />
    </linearGradient>
    <linearGradient
       id="linearGradient5542">
      <stop
         style="stop-color:#eeeeec;stop-opacity:1"
         offset="0"
         id="stop5544" />
      <stop
         style="stop-color:white;stop-opacity:1"
         offset="1"
         id="stop5546" />
    </linearGradient>
    <linearGradient
       id="linearGradient3656">
      <stop
         style="stop-color:#e1e1e1;stop-opacity:1"
         offset="0"
         id="stop3658" />
      <stop
         style="stop-color:white;stop-opacity:1"
         offset="1"
         id="stop3660" />
    </linearGradient>
    <linearGradient
       x1="326.03687"
       y1="295.49277"
       x2="357.55859"
       y2="295.49277"
       id="linearGradient18967"
       xlink:href="#linearGradient3656"
       gradientUnits="userSpaceOnUse" />
    <linearGradient
       x1="262"
       y1="1017.3622"
       x2="205"
       y2="850.36218"
       id="linearGradient48506"
       xlink:href="#linearGradient31340"
       gradientUnits="userSpaceOnUse"
       gradientTransform="matrix(0.952096,0,0,0.952096,1.625747,-6.4031e-2)" />
    <linearGradient
       x1="354.53583"
       y1="293.22543"
       x2="339.15793"
       y2="218.43898"
       id="linearGradient55763"
       xlink:href="#linearGradient10908"
       gradientUnits="userSpaceOnUse"
       gradientTransform="matrix(1,0,0,-1,-12,529.4963)" />
    <linearGradient
       x1="357.82538"
       y1="87.493156"
       x2="348.72049"
       y2="87.243164"
       id="linearGradient55765"
       xlink:href="#linearGradient32231"
       gradientUnits="userSpaceOnUse"
       gradientTransform="matrix(1,0,0,-1,48,529.4963)" />
    <radialGradient
       cx="340.75"
       cy="98.612183"
       r="9.75"
       fx="340.75"
       fy="98.612183"
       id="radialGradient55767"
       xlink:href="#linearGradient8129"
       gradientUnits="userSpaceOnUse"
       gradientTransform="matrix(1,0,0,6.769231,0,-568.9164)" />
    <linearGradient
       x1="323.20844"
       y1="222.58279"
       x2="360.38702"
       y2="222.58279"
       id="linearGradient55769"
       xlink:href="#linearGradient3656"
       gradientUnits="userSpaceOnUse"
       gradientTransform="matrix(0.984635,1.383516e-8,0,0.610879,31.12022,-470.826)" />
    <linearGradient
       x1="326.03687"
       y1="295.49277"
       x2="357.55859"
       y2="295.49277"
       id="linearGradient55771"
       xlink:href="#linearGradient3656"
       gradientUnits="userSpaceOnUse" />
    <linearGradient
       x1="357.82538"
       y1="87.493156"
       x2="348.72049"
       y2="87.243164"
       id="linearGradient55773"
       xlink:href="#linearGradient32231"
       gradientUnits="userSpaceOnUse"
       gradientTransform="matrix(1,0,0,0.796909,108,60.7714)" />
    <radialGradient
       cx="340.75"
       cy="98.612183"
       r="9.75"
       fx="340.75"
       fy="98.612183"
       id="radialGradient55775"
       xlink:href="#linearGradient8129"
       gradientUnits="userSpaceOnUse"
       gradientTransform="matrix(1,0,0,6.769231,0,-568.9164)" />
    <linearGradient
       x1="197.5"
       y1="314.11218"
       x2="281"
       y2="314.11218"
       id="linearGradient57615"
       xlink:href="#linearGradient10908"
       gradientUnits="userSpaceOnUse"
       gradientTransform="matrix(0.859767,0,0,0.954927,-365.9995,13.80433)" />
    <linearGradient
       x1="250.58176"
       y1="298.79581"
       x2="251.15445"
       y2="214.77899"
       id="linearGradient4794"
       xlink:href="#linearGradient10908"
       gradientUnits="userSpaceOnUse"
       gradientTransform="matrix(-0.831209,0,0,0.9536,376.2744,14.7832)" />
  </defs>
  <g
     style="display:inline"
     id="layer1">
    <rect
       width="63.790421"
       height="108.53893"
       x="197.75749"
       y="869.54425"
       style="opacity:1;fill:url(#linearGradient48506);fill-opacity:1;fill-rule:evenodd;stroke:#d3d7cf;stroke-width:1.90419161;stroke-linecap:round;stroke-linejoin:round;stroke-miterlimit:4;stroke-dasharray:none;stroke-dashoffset:0;stroke-opacity:1"
       id="rect47613" />
    <path
       d="M 255.33338,283.56703 C 239.12481,296.44063 199.64238,298.82463 175.95292,298.82463 C 152.26346,298.82463 99.066089,298.82463 99.066089,298.82463 L 99.066089,220.62942 C 99.066089,220.62942 180.94018,219.19902 202.55161,225.39742 C 224.16304,231.59582 252.00855,244.46942 254.08657,259.72702 C 256.16459,274.98462 254.91779,283.09023 255.33338,283.56703 z "
       style="fill:url(#linearGradient4794);fill-opacity:1;fill-rule:evenodd;stroke:#d3d7cf;stroke-width:1.78060782;stroke-linecap:butt;stroke-linejoin:miter;stroke-miterlimit:4;stroke-dasharray:none;stroke-opacity:1"
       id="path11811" />
    <g
       transform="matrix(5.564601e-2,0,0,5.564601e-2,213.3848,889.9745)"
       id="g49481">
      <path
         d="M 692.2423,641.2594 L 58.06337,641.7258 C 33.27581,641.744 22.84648,616.7864 37.437,592.3662 L 342.1144,82.43269 C 359.5153,54.13519 391.7742,53.82719 409.1749,83.38799 L 717.3488,591.8994 C 734.3013,616.18 721.9754,641.6947 692.2423,641.2594 z "
         style="font-size:12px;fill-rule:evenodd;stroke:#ffe600;stroke-width:10;stroke-linejoin:round"
         id="path634" />
      <path
         d="M 533.3872,416.5723 L 622.7885,570.3867 L 315.319,572.9907 L 135.0745,571.2241 L 285.0734,309.019 L 375.9166,156.9714 L 533.3872,416.5723 z "
         style="font-size:12px;fill:#ffe600;fill-rule:evenodd"
         id="path609" />
      <path
         d="M 357.6896,251.0014 L 280.914,438.8063 L 388.3998,402.1904 L 350.6026,542.7486 L 430.9216,370.2989 L 316.3489,405.7337 L 399.0303,249.8203 L 357.6896,251.0014 z "
         style="font-size:12px;fill-rule:evenodd"
         id="path615" />
      <path
         d="M 342.3344,490.7775 L 351.7838,548.6544 L 393.1244,500.2267 L 363.5954,507.3137 L 342.3344,490.7775 z "
         style="font-size:12px;fill-rule:evenodd"
         id="path617" />
    </g>
    <g
       transform="matrix(-0.952096,0,0,0.952096,387.6129,0.888065)"
       id="g55733">
      <path
         d="M 304.1875,272.4963 C 304.19624,272.49211 304.21001,272.50048 304.21875,272.4963 L 304.21875,270.5588 C 304.21001,270.55462 304.19624,270.56299 304.1875,270.5588 C 304.01071,232.97886 304.54298,231.81594 315.59375,232.4963 C 320.93825,232.56449 328.91727,231.86803 340.4375,235.3713 C 376.23756,246.25802 380.70258,267.6841 380.90625,271.3713 C 380.90679,271.38112 380.90577,271.39295 380.90625,271.40255 C 380.90608,271.46558 380.91009,271.57572 380.90625,271.65255 C 380.90132,271.65997 380.91118,271.67638 380.90625,271.6838 C 380.70258,275.37101 376.36256,295.92208 340.5625,306.8088 C 329.04227,310.31208 320.93825,310.49061 315.59375,310.5588 C 305.02001,311.17417 303.85603,311.56593 304.1875,272.4963 z "
         style="fill:url(#linearGradient55763);fill-opacity:1;fill-rule:evenodd;stroke:#d3d7cf;stroke-width:2;stroke-linecap:butt;stroke-linejoin:miter;stroke-miterlimit:4;stroke-dasharray:none;stroke-opacity:1"
         id="path55735" />
      <g
         transform="translate(-60,0)"
         id="g55737">
        <g
           id="g55739">
          <path
             d="M 399,307.63412 C 399,351.13412 405.87868,342.726 406.37868,381.226 C 406.87868,419.726 409.04416,661.86053 390.73223,553.85163 C 386.67767,529.93668 374.25057,442.04044 370.57538,378.08997 C 382.43934,330.62371 378.52513,309.63412 378.52513,309.63412 L 399,307.63412 z "
             style="fill:url(#linearGradient55765);fill-opacity:1;fill-rule:evenodd;stroke:#d3d7cf;stroke-width:2;stroke-linecap:round;stroke-linejoin:round;stroke-miterlimit:4;stroke-dasharray:none;stroke-opacity:1"
             id="path55741" />
          <path
             d="M 349.5 98.612183 A 8.75 65 0 1 1  332,98.612183 A 8.75 65 0 1 1  349.5 98.612183 z"
             transform="matrix(1.583364,-6.427269e-2,-6.917851e-2,-1.471079,-149.0635,585.3944)"
             style="opacity:0.5;fill:url(#radialGradient55767);fill-opacity:1;fill-rule:evenodd;stroke:none;stroke-width:2.00019836;stroke-linecap:round;stroke-linejoin:round;stroke-miterlimit:4;stroke-dasharray:none;stroke-dashoffset:0;stroke-opacity:1"
             id="path55743" />
        </g>
        <rect
           width="34.664211"
           height="7.3594871"
           x="350.3342"
           y="-338.53467"
           transform="matrix(0.997563,-6.977399e-2,-6.578213e-2,-0.997834,0,0)"
           style="fill:url(#linearGradient55769);fill-opacity:1;fill-rule:evenodd;stroke:#d3d7cf;stroke-width:2.00000834;stroke-linecap:round;stroke-linejoin:round;stroke-miterlimit:4;stroke-dasharray:none;stroke-dashoffset:0;stroke-opacity:1"
           id="rect55745" />
      </g>
      <g
         transform="translate(-120,0)"
         id="g55747">
        <g
           id="g55749">
          <path
             d="M 356.55858 295.49277 A 14.760854 7.1594563 0 1 1  327.03688,295.49277 A 14.760854 7.1594563 0 1 1  356.55858 295.49277 z"
             transform="matrix(1.164286,9.607747e-2,9.607747e-2,-1.164286,23.26529,552.5362)"
             style="fill:url(#linearGradient55771);fill-opacity:1;fill-rule:evenodd;stroke:#d3d7cf;stroke-width:2;stroke-linecap:round;stroke-linejoin:round;stroke-miterlimit:4;stroke-dasharray:none;stroke-dashoffset:0;stroke-opacity:1"
             id="path55751" />
          <path
             d="M 356.55858 295.49277 A 14.760854 7.1594563 0 1 1  327.03688,295.49277 A 14.760854 7.1594563 0 1 1  356.55858 295.49277 z"
             transform="matrix(1.164286,9.607747e-2,9.607747e-2,-1.164286,23.6496,547.879)"
             style="fill:#eeeeec;fill-opacity:1;fill-rule:evenodd;stroke:#d3d7cf;stroke-width:2;stroke-linecap:round;stroke-linejoin:round;stroke-miterlimit:4;stroke-dasharray:none;stroke-dashoffset:0;stroke-opacity:1"
             id="path55753" />
        </g>
        <g
           id="g55755">
          <path
             d="M 460.25,238.07536 C 460.25,203.40982 465.87868,209.61033 466.37868,178.92934 C 466.87868,148.24834 469.04416,-44.71085 450.73223,41.36242 C 446.67767,60.42046 434.25057,130.46577 430.57538,181.42847 C 442.43934,219.25476 439.77513,235.98155 439.77513,235.98155 C 439.77513,235.98155 445.01884,238.505 450.13756,238.90346 C 455.25628,239.30191 460.25,238.07536 460.25,238.07536 z "
             style="fill:url(#linearGradient55773);fill-opacity:1;fill-rule:evenodd;stroke:#d3d7cf;stroke-width:1.78539515;stroke-linecap:round;stroke-linejoin:round;stroke-miterlimit:4;stroke-dasharray:none;stroke-opacity:1"
             id="path55757" />
          <path
             d="M 349.5 98.612183 A 8.75 65 0 1 1  332,98.612183 A 8.75 65 0 1 1  349.5 98.612183 z"
             transform="matrix(1.583364,5.121949e-2,-6.917851e-2,1.172316,-89.0635,16.2257)"
             style="opacity:0.5;fill:url(#radialGradient55775);fill-opacity:1;fill-rule:evenodd;stroke:none;stroke-width:2.00019836;stroke-linecap:round;stroke-linejoin:round;stroke-miterlimit:4;stroke-dasharray:none;stroke-dashoffset:0;stroke-opacity:1"
             id="path55759" />
        </g>
      </g>
    </g>
    <rect
       width="70.071037"
       height="31.035109"
       x="-195.33556"
       y="298.24078"
       transform="scale(-1,1)"
       style="fill:url(#linearGradient57615);fill-opacity:1;fill-rule:evenodd;stroke:#d3d7cf;stroke-width:1.81219697;stroke-linecap:round;stroke-linejoin:round;stroke-miterlimit:4;stroke-dasharray:none;stroke-dashoffset:0;stroke-opacity:1"
       id="rect10916" />
    <g
       transform="matrix(-0.952096,0,0,0.952096,387.5667,0.881962)"
       style="display:inline"
       id="g39451">
      <path
         d="M 211.4375,344.9375 L 188.5625,1026.375 L 239.875,1026.3125 L 291.15625,1026.375 L 268.28125,344.9375 L 267.15625,344.9375 L 212.5625,344.9375 L 211.4375,344.9375 z "
         style="fill:url(#linearGradient39461);fill-opacity:1;fill-rule:evenodd;stroke:#d3d7cf;stroke-width:2;stroke-linecap:butt;stroke-linejoin:miter;stroke-miterlimit:4;stroke-dasharray:none;stroke-opacity:1"
         id="path4906" />
      <g
         style="opacity:0.5"
         id="g26877">
        <path
           d="M 201.28125,647.03125 L 188.5625,1026.375 L 239.875,1026.3125 L 291.15625,1026.375 L 278.4375,647.03125 L 201.28125,647.03125 z "
           style="opacity:0.4;fill:#98c222;fill-opacity:1;fill-rule:evenodd;stroke:none;stroke-width:2;stroke-linecap:butt;stroke-linejoin:miter;stroke-miterlimit:4;stroke-dasharray:none;stroke-opacity:1"
           id="path5563" />
        <path
           d="M 199.1875,709.90625 L 188.5625,1026.375 L 239.875,1026.3125 L 291.15625,1026.375 L 280.53125,709.90625 L 199.1875,709.90625 z "
           style="opacity:0.4;fill:#98c222;fill-opacity:1;fill-rule:evenodd;stroke:none;stroke-width:2;stroke-linecap:butt;stroke-linejoin:miter;stroke-miterlimit:4;stroke-dasharray:none;stroke-opacity:1"
           id="path5568" />
        <path
           d="M 197.03125,773.75 L 188.5625,1026.375 L 239.875,1026.3125 L 291.15625,1026.375 L 282.6875,773.75 L 197.03125,773.75 z "
           style="opacity:0.4;fill:#98c222;fill-opacity:1;fill-rule:evenodd;stroke:none;stroke-width:2;stroke-linecap:butt;stroke-linejoin:miter;stroke-miterlimit:4;stroke-dasharray:none;stroke-opacity:1"
           id="path5575" />
        <path
           d="M 194.9375,836.5625 L 188.5625,1026.375 L 239.875,1026.3125 L 291.15625,1026.375 L 284.78125,836.5625 L 194.9375,836.5625 z "
           style="opacity:0.4;fill:#98c222;fill-opacity:1;fill-rule:evenodd;stroke:none;stroke-width:2;stroke-linecap:butt;stroke-linejoin:miter;stroke-miterlimit:4;stroke-dasharray:none;stroke-opacity:1"
           id="path5582" />
        <path
           d="M 192.84375,898.375 L 188.5625,1026.375 L 239.875,1026.3125 L 291.15625,1026.375 L 286.875,898.375 L 192.84375,898.375 z "
           style="opacity:0.5;fill:#98c222;fill-opacity:1;fill-rule:evenodd;stroke:none;stroke-width:2;stroke-linecap:butt;stroke-linejoin:miter;stroke-miterlimit:4;stroke-dasharray:none;stroke-opacity:1"
           id="path5580" />
      </g>
      <rect
         width="73.596626"
         height="32.596622"
         x="201.95169"
         y="312.31387"
         style="opacity:1;fill:url(#linearGradient39463);fill-opacity:1;fill-rule:evenodd;stroke:#d3d7cf;stroke-width:1.9033767;stroke-linecap:round;stroke-linejoin:round;stroke-miterlimit:4;stroke-dasharray:none;stroke-dashoffset:0;stroke-opacity:1"
         id="rect4914" />
    </g>
  </g>
  <g
     style="display:inline"
     id="layer2" />
</svg>
