<?xml version="1.0" encoding="utf-8"?>
<!-- Generator: Adobe Illustrator 12.0.0, SVG Export Plug-In . SVG Version: 6.00 Build 51448)  -->
<!DOCTYPE svg PUBLIC "-//W3C//DTD SVG 1.1//EN" "http://www.w3.org/Graphics/SVG/1.1/DTD/svg11.dtd" [
	<!ENTITY ns_svg "http://www.w3.org/2000/svg">
	<!ENTITY ns_xlink "http://www.w3.org/1999/xlink">
]>
<svg  version="1.1" id="Layer_1" xmlns="&ns_svg;" xmlns:xlink="&ns_xlink;" width="582.709" height="779.231"
	 viewBox="0 0 582.709 779.231" overflow="visible" enable-background="new 0 0 582.709 779.231" xml:space="preserve">
<g>
	<path d="M332.644,268.542c0,0-114.996-60-194.998-62c-80-2-128,39-133,81s101,102,155,126s113-29,139.002-60
		C324.646,322.542,332.644,268.542,332.644,268.542z"/>
	<path d="M123.646,397.792c0,0-37.998,58.75-49,108.75c-11,50-6.75,82.75-2.75,93.75s-3.25,31.25-3.25,31.25l21,9l112.375,8.875
		l0.625-42.873c0,0,17.002-16.002,24-23.002c7-6.998,14.004-55.527,8-78c-7.75-29-29.625-66.998-47.625-77
		S123.646,397.792,123.646,397.792z"/>
	<g>
		<path d="M247.373,444.661c50.957-21.961,101.912-43.924,153.75-56.471c-8.742,75.641-9.932,72.883-90.387,107.564"/>
		<g>
			<path fill="none" d="M247.373,444.661c50.957-21.961,101.912-43.924,153.75-56.471c-8.742,75.641-9.932,72.883-90.387,107.564"/>
			<path fill="#FFFFFF" d="M249.294,448.706c49.764-21.446,99.803-43.212,152.606-56.107c-1.745-1.61-3.49-3.22-5.235-4.831
				c-1.632,14.109-2.943,28.449-6.145,42.313c-2.08,9.01-5.269,17.606-11.365,24.684c-6.304,7.317-15.438,12.097-23.925,16.354
				c-15.119,7.585-30.891,13.902-46.416,20.591c-5.301,2.284-1.455,10.372,3.844,8.09c15.816-6.814,31.85-13.284,47.252-21.012
				c9.794-4.913,19.255-10.623,26.579-18.888c6.444-7.272,9.959-16.614,12.241-25.922c3.641-14.847,5.097-30.214,6.851-45.366
				c0.319-2.761-2.42-5.519-5.235-4.831c-53.586,13.086-104.391,35.07-154.894,56.834
				C240.15,442.901,243.996,450.989,249.294,448.706L249.294,448.706z"/>
		</g>
	</g>
	<g>
		<g>
			<path fill="none" d="M329.087,265.372c-75.002-42.393-228.262-94.564-300.002-26.086
				c-52.174,52.174-13.043,97.824,39.131,127.174c45.652,29.346,104.348,39.131,143.479,84.781
				c22.826,22.828,30.652,75,20.869,114.129c-13.043,45.656-40.436,42.393-86.086,52.178"/>
			<path fill="#FFFFFF" d="M331.655,261.705c-36.377-20.495-75.658-36.258-115.955-47.114
				c-41.926-11.295-87.461-17.982-130.431-8.665c-19.216,4.167-37.542,12.166-52.916,24.516
				c-18.231,14.645-33.77,37.512-32.25,61.776c1.428,22.813,16.553,41.354,33.172,55.709c9.916,8.565,20.995,15.752,32.374,22.2
				c10.551,5.979,20.855,12.037,31.838,17.248c22.542,10.696,45.939,19.601,67.629,32.034c20.199,11.58,41.492,27.481,53.096,48.151
				c11.685,20.814,14.888,46.495,13.829,70c-0.902,20.023-5.194,43.598-21.545,57.043c-7.503,6.169-17.196,8.997-26.493,11.13
				c-12.673,2.906-25.583,4.705-38.301,7.406c-5.635,1.196-4.099,10.018,1.555,8.816c18.848-4.002,39.006-5.499,56.853-13.191
				c17.275-7.447,26.925-23.02,32.247-40.444c7.005-22.935,6.141-49.402,1.305-72.648c-2.302-11.069-5.972-21.999-11.359-31.954
				c-5.292-9.778-13.045-18.033-20.986-25.712c-36.475-35.268-87.023-46.715-129.59-72.141
				c-21.37-12.765-43.72-26.311-57.502-47.755c-5.769-8.976-9.435-19.287-9.3-30.029c0.157-12.431,5.721-23.81,12.899-33.669
				c26.024-35.746,72.494-45.045,114.173-43.661c45.179,1.5,89.86,14.055,131.698,30.542c20.171,7.949,39.933,17.102,58.828,27.747
				C331.506,271.848,336.689,264.541,331.655,261.705L331.655,261.705z"/>
		</g>
	</g>
	<g>
		<g>
			<path fill="none" d="M113.912,405.297c-35.746,66.654-60.766,123.428-46.15,195.234"/>
			<path fill="#FFFFFF" d="M110.245,402.73c-16.755,31.282-33.029,63.191-42.712,97.479c-9.336,33.06-10.899,67.392-4.18,101.1
				c1.127,5.654,9.947,4.112,8.817-1.555c-6.54-32.807-4.878-65.845,4.202-97.999c9.311-32.967,25.101-63.818,41.207-93.891
				C120.272,402.836,112.969,397.643,110.245,402.73L110.245,402.73z"/>
		</g>
	</g>
	<g>
		<path fill="#FFFFFF" d="M322.566,278.415c-91.307,22.826-198.916,26.088-286.959,22.826
			C104.085,346.893,289.955,369.719,322.566,278.415"/>
		<g>
			<path fill="none" d="M322.566,278.415c-91.307,22.826-198.916,26.088-286.959,22.826
				C104.085,346.893,289.955,369.719,322.566,278.415"/>
			<path fill="#FFFFFF" d="M321.789,274.006c-92.917,23.084-190.477,26.26-285.759,22.777c-4.282-0.157-6.922,5.521-2.99,8.125
				c27.699,18.335,61.073,28.034,93.382,34.291c36.81,7.129,75.579,9.209,112.613,2.521c36.635-6.616,74.226-24.651,87.731-61.752
				c1.979-5.435-6.425-8.529-8.398-3.107c-11.108,30.518-40.562,46.566-70.588,53.869c-36.28,8.824-74.955,7.193-111.534,1.163
				c-33.706-5.557-69.292-15.27-98.07-34.319c-0.997,2.708-1.994,5.417-2.99,8.125c96.033,3.51,194.509,0.391,288.159-22.875
				C328.915,281.439,327.397,272.613,321.789,274.006L321.789,274.006z"/>
		</g>
	</g>
	<path d="M183.646,307.792c0,0-14.25,6-14.625,18.375c-0.375,12.393,9.375,22.5,9.375,22.5s18-8.625,18.75-20.25
		S183.646,307.792,183.646,307.792z"/>
	<path d="M227.037,304.915c0,0-11.014,10.852-6.777,22.486c4.24,11.648,17.039,17.426,17.039,17.426s13.527-14.678,9.918-25.754
		S227.037,304.915,227.037,304.915z"/>
	<g>
		<path d="M204.146,609.543c0,41.73,0.5,88.463-8.5,127.998c-66-28.553-63-28.553-63-94.447"/>
		<g>
			<path fill="none" d="M204.146,609.543c0,41.73,0.5,88.463-8.5,127.998c-66-28.553-63-28.553-63-94.447"/>
			<path fill="#FFFFFF" d="M199.688,609.121c0.006,42.659,0.87,86.123-8.5,127.998c2.003-1.259,4.007-2.518,6.011-3.776
				c-12.068-5.223-24.344-10.252-35.895-16.571c-6.929-3.79-13.677-8.206-18.168-14.843c-4.087-6.04-4.951-14.013-5.52-21.07
				c-0.999-12.388-0.517-24.927-0.514-37.341c0.002-5.732-8.914-6.611-8.915-0.846c-0.004,13.233-0.365,26.532,0.611,39.741
				c0.608,8.226,2.135,16.727,6.552,23.83c4.644,7.469,11.756,12.672,19.276,16.997c12.578,7.235,26.173,12.749,39.465,18.501
				c2.924,1.266,5.42-1.133,6.011-3.776c9.371-41.876,8.507-85.34,8.5-127.998C208.603,604.234,199.688,603.355,199.688,609.121
				L199.688,609.121z"/>
		</g>
	</g>
	<g>
		<path d="M145.257,618.145c-17.943,54.105-35.885,108.205-61.426,156.631C33.462,716.981,36.31,717.924,64.64,632.5"/>
		<g>
			<path fill="none" d="M145.257,618.145c-17.943,54.105-35.885,108.205-61.426,156.631C33.462,716.981,36.31,717.924,64.64,632.5"
				/>
			<path fill="#FFFFFF" d="M141.058,616.591c-17.521,52.83-34.944,106.189-60.894,155.617c2.36-0.109,4.721-0.22,7.082-0.329
				c-9.511-10.916-19.275-21.766-27.581-33.651c-5.199-7.439-9.299-15.578-10.49-24.651c-1.298-9.889,1.147-20.15,3.698-29.64
				c4.529-16.849,10.474-33.334,15.966-49.883c1.818-5.479-6.579-8.588-8.398-3.107c-5.606,16.892-11.62,33.715-16.243,50.912
				c-2.856,10.625-5.029,21.521-3.923,32.562c1.003,10.018,5.602,19.04,11.031,27.34c8.417,12.868,19.039,24.352,29.111,35.912
				c1.71,1.962,5.7,2.304,7.082-0.329c26.332-50.154,44.177-104.029,61.958-157.645C151.273,614.219,142.876,611.11,141.058,616.591
				L141.058,616.591z"/>
		</g>
	</g>
	<g>
		<g>
			<path fill="#FFFFFF" d="M405.404,361.983l139.631-246.734c38.232-69.562,39.727-69.031,23.498-110.812
				c-27.41,40.15-51.617,84.207-75.834,128.262l-121.863,213.9"/>
			<g>
				<path fill="none" d="M405.404,361.983l139.631-246.734c38.232-69.562,39.727-69.031,23.498-110.812
					c-27.41,40.15-51.617,84.207-75.834,128.262l-121.863,213.9"/>
				<path d="M409.071,364.551c21.144-37.363,42.288-74.725,63.432-112.087c24.901-44,49.802-88.001,74.702-132.002
					c11.109-19.63,23.403-39.554,31.49-60.683c3.238-8.458,4.775-17.219,3.646-26.245c-1.339-10.699-5.896-21.054-9.763-31.019
					c-1.234-3.179-5.914-3.288-7.712-0.646c-28.505,41.867-52.042,86.501-77.075,130.44c-9.923,17.417-19.846,34.834-29.77,52.252
					c-28.41,49.868-56.821,99.736-85.231,149.604c-1.874,3.289-3.747,6.577-5.621,9.865c-2.835,4.977,4.473,10.157,7.334,5.136
					c22.775-39.977,45.551-79.953,68.326-119.929c27.401-48.096,54.353-96.437,81.658-144.582
					c14.99-26.431,30.607-52.526,47.713-77.651c-2.57-0.215-5.141-0.431-7.712-0.646c4.563,11.756,10.381,24.36,9.153,37.282
					c-1.499,15.782-11.525,31.131-18.895,44.688c-8.999,16.556-18.245,32.953-27.524,49.35
					c-29.762,52.59-59.523,105.18-89.285,157.77c-12.066,21.323-24.134,42.645-36.2,63.968
					C398.917,364.398,406.225,369.58,409.071,364.551L409.071,364.551z"/>
			</g>
		</g>
		<g>
			<path d="M298.355,462.995c15.727-20.621,55.787-91.67,61.312-116.008c18.545,3.459,37.09,6.914,51.012,18.572
				c-9.244,16.396-57.217,94.209-68.115,113.531C337.941,487.288,289.109,479.393,298.355,462.995"/>
			<g>
				<path fill="none" d="M298.355,462.995c15.727-20.621,55.787-91.67,61.312-116.008c18.545,3.459,37.09,6.914,51.012,18.572
					c-9.244,16.396-57.217,94.209-68.115,113.531C337.941,487.288,289.109,479.393,298.355,462.995"/>
				<path d="M302.022,465.562c13.409-17.708,24.233-37.7,34.79-57.181c6.067-11.195,11.897-22.532,17.238-34.093
					c3.824-8.278,7.723-16.834,9.816-25.748c-1.541,0.968-3.081,1.936-4.622,2.904c17.176,3.206,34.941,6.479,48.867,17.782
					c-0.366-2.078-0.733-4.156-1.1-6.235c-16.61,29.371-34.849,57.871-52.262,86.768c-3.977,6.6-7.942,13.205-11.85,19.846
					c-1.268,2.154-2.526,4.315-3.761,6.488c-0.619,1.089,0.043,0.392-0.736,0.776c-0.839,0.414-2.239,0.637-3.462,0.81
					c-6.793,0.961-14.277-0.419-20.776-2.358c-3.446-1.028-12.582-3.988-12.502-8.273c0.017-0.907,0.481-1.716,0.891-2.499
					c2.673-5.118-5.766-8.148-8.398-3.107c-7.685,14.715,14.051,21.995,24.3,24.107c6.579,1.355,13.974,2.028,20.579,0.479
					c5.82-1.364,7.683-5.277,10.471-10.045c18.095-30.938,37.095-61.346,55.535-92.077c3.141-5.235,6.3-10.464,9.306-15.779
					c1.269-2.243,0.937-4.583-1.1-6.235c-15.119-12.271-34.517-15.884-53.156-19.363c-1.775-0.332-4.199,1.103-4.622,2.904
					c-2.012,8.565-5.727,16.757-9.352,24.735c-5.286,11.63-11.171,22.991-17.256,34.219c-10.352,19.1-21.027,38.679-34.173,56.04
					C291.196,465.039,298.542,470.158,302.022,465.562L302.022,465.562z"/>
			</g>
		</g>
	</g>
	<g>
		<path d="M177.55,461.073c54.775-8.855,109.549-17.713,162.881-17.221c-26.941,71.215-27.422,68.25-113.908,82.236"/>
		<g>
			<path fill="none" d="M177.55,461.073c54.775-8.855,109.549-17.713,162.881-17.221c-26.941,71.215-27.422,68.25-113.908,82.236"/>
			<path fill="#FFFFFF" d="M178.328,465.481c53.484-8.646,107.338-17.56,161.681-17.171c-1.259-2.004-2.518-4.008-3.776-6.012
				c-5.102,13.479-10.019,27.157-16.542,40.034c-4.032,7.959-9.206,15.283-16.526,20.508c-7.875,5.619-17.861,8.084-27.146,10.154
				c-16.587,3.697-33.505,5.978-50.271,8.686c-5.703,0.921-4.141,9.736,1.555,8.816c17.073-2.757,34.275-5.119,51.165-8.885
				c10.542-2.351,20.954-5.517,29.982-11.592c8.101-5.45,13.852-13.645,18.372-22.146c7.204-13.55,12.391-28.146,17.811-42.468
				c0.957-2.53-0.858-5.99-3.776-6.012c-55.167-0.394-109.784,8.492-164.081,17.271C171.07,457.586,172.632,466.402,178.328,465.481
				L178.328,465.481z"/>
		</g>
	</g>
</g>
</svg>
