<?xml version="1.0" encoding="utf-8"?>
<!-- Generator: Adobe Illustrator 12.0.0, SVG Export Plug-In . SVG Version: 6.00 Build 51448)  -->
<!DOCTYPE svg PUBLIC "-//W3C//DTD SVG 1.1//EN" "http://www.w3.org/Graphics/SVG/1.1/DTD/svg11.dtd" [
	<!ENTITY ns_svg "http://www.w3.org/2000/svg">
	<!ENTITY ns_xlink "http://www.w3.org/1999/xlink">
]>
<svg  version="1.1" id="Layer_1" xmlns="&ns_svg;" xmlns:xlink="&ns_xlink;" width="511.745" height="749.201"
	 viewBox="0 0 511.745 749.201" overflow="visible" enable-background="new 0 0 511.745 749.201" xml:space="preserve">
<g>
	<path d="M487.732,238.515c0,0-114.996-60.002-194.998-62.002c-80-2-128,39-133,81s101,102,155,126c54,24,113-29.002,139.002-60
		C479.734,292.515,487.732,238.515,487.732,238.515z"/>
	<path d="M279.109,366.263c0,0-38.373,60.248-49.375,110.25c-11,50.002-6.75,82.748-2.75,93.75
		c3.998,11.002-3.252,31.252-3.252,31.252l21.002,9l112.75,7.748l0.252-41.748c0,0,12.498-12.004,19.5-19.002
		c10.5-10.5,17.332-62.484,11.496-85.002c-6.996-27-17.748-54.123-62.748-84.498C308.916,376.492,279.109,366.263,279.109,366.263z"
		/>
	<g>
		<path d="M368.236,418.013c45.043-32.396,87.979-61.947,135.908-85.338c7.717,75.75,5.965,73.314-65.16,124.469l-45.752,29.371"/>
		<g>
			<path fill="none" d="M368.236,418.013c45.043-32.396,87.979-61.947,135.908-85.338c7.717,75.75,5.965,73.314-65.16,124.469
				l-45.752,29.371"/>
			<path fill="#FFFFFF" d="M371.132,421.427c43.172-31.035,87.08-61.256,134.934-84.708c-2.109-1.089-4.221-2.178-6.33-3.267
				c1.76,17.29,4.484,35.248,2.391,52.629c-1.43,11.866-7.318,21.304-15.818,29.477c-14.299,13.745-31.465,24.706-47.519,36.23
				c-10.046,7.21-20.804,13.558-31.214,20.24c-5.421,3.48-10.843,6.962-16.265,10.442c-4.784,3.07-1.015,11.207,3.843,8.088
				c22.82-14.649,45.604-29.096,67.586-44.985c13.193-9.538,27.225-19.143,37.471-31.991c7.744-9.713,10.857-21.496,11.396-33.732
				c0.703-15.959-1.441-32.109-3.055-47.952c-0.295-2.905-3.854-4.48-6.33-3.267c-48.531,23.785-93.098,54.493-136.883,85.968
				C360.654,417.968,366.468,424.781,371.132,421.427L371.132,421.427z"/>
		</g>
	</g>
	<g>
		<g>
			<path fill="none" d="M484.175,235.343c-75-42.391-228.263-94.564-300.001-26.086c-52.176,52.172-13.043,97.824,39.131,127.172
				c45.65,29.35,104.349,39.131,143.478,84.783c22.824,22.828,30.65,75,20.871,114.129c-13.047,45.656-40.436,42.393-86.09,52.178"
				/>
			<path fill="#FFFFFF" d="M486.744,231.676c-36.377-20.495-75.658-36.257-115.955-47.113
				c-41.926-11.295-87.463-17.983-130.432-8.666c-19.216,4.167-37.542,12.166-52.916,24.516
				c-18.231,14.645-33.77,37.51-32.251,61.775c1.428,22.813,16.554,41.354,33.173,55.709c9.916,8.565,20.995,15.751,32.374,22.199
				c10.551,5.979,20.855,12.038,31.837,17.25c22.542,10.697,45.94,19.6,67.63,32.035c20.199,11.579,41.491,27.481,53.094,48.151
				c11.686,20.814,14.889,46.495,13.83,70c-0.901,20.025-5.193,43.598-21.545,57.043c-7.503,6.169-17.195,8.997-26.494,11.13
				c-12.673,2.907-25.583,4.706-38.303,7.405c-5.635,1.197-4.099,10.018,1.555,8.818c18.849-4.002,39.008-5.5,56.855-13.192
				c17.275-7.446,26.925-23.02,32.248-40.444c7.007-22.933,6.139-49.405,1.303-72.648c-2.303-11.068-5.973-21.999-11.359-31.954
				c-5.292-9.778-13.045-18.034-20.986-25.712c-36.473-35.27-87.024-46.713-129.59-72.143c-21.369-12.766-43.72-26.31-57.503-47.755
				c-5.769-8.976-9.435-19.287-9.3-30.029c0.156-12.431,5.721-23.809,12.899-33.668c26.025-35.746,72.493-45.045,114.173-43.661
				c45.18,1.501,89.861,14.055,131.699,30.542c20.172,7.949,39.932,17.102,58.828,27.747
				C486.595,241.82,491.777,234.512,486.744,231.676L486.744,231.676z"/>
		</g>
	</g>
	<g>
		<g>
			<path fill="none" d="M269.001,375.267c-35.748,66.654-60.767,123.43-46.152,195.236"/>
			<path fill="#FFFFFF" d="M265.335,372.7c-16.756,31.282-33.031,63.191-42.714,97.48c-9.336,33.061-10.899,67.393-4.18,101.101
				c1.127,5.655,9.947,4.112,8.817-1.555c-6.54-32.808-4.878-65.846,4.202-98c9.311-32.968,25.101-63.819,41.209-93.892
				C275.363,372.806,268.06,367.613,265.335,372.7L265.335,372.7z"/>
		</g>
	</g>
	<g>
		<path fill="#FFFFFF" d="M477.654,248.386c-91.307,22.826-198.914,26.086-286.958,22.826
			C259.176,316.865,445.042,339.691,477.654,248.386"/>
		<g>
			<path fill="none" d="M477.654,248.386c-91.307,22.826-198.914,26.086-286.958,22.826
				C259.176,316.865,445.042,339.691,477.654,248.386"/>
			<path fill="#FFFFFF" d="M476.876,243.978c-92.916,23.084-190.477,26.257-285.759,22.777c-4.282-0.157-6.922,5.521-2.99,8.125
				c27.699,18.335,61.074,28.034,93.382,34.291c36.811,7.129,75.579,9.209,112.613,2.521c36.635-6.616,74.225-24.651,87.73-61.752
				c1.979-5.435-6.424-8.529-8.398-3.107c-11.107,30.518-40.561,46.566-70.588,53.869c-36.279,8.824-74.954,7.193-111.533,1.163
				c-33.706-5.557-69.292-15.27-98.07-34.319c-0.997,2.708-1.994,5.417-2.99,8.125c96.033,3.508,194.508,0.391,288.158-22.875
				C484.003,251.411,482.486,242.584,476.876,243.978L476.876,243.978z"/>
		</g>
	</g>
	<path d="M369.882,274.371c0,0-13.58,7.396-12.715,19.746c0.867,12.367,11.58,21.449,11.58,21.449s17.049-10.383,16.629-22.025
		C384.96,281.898,369.882,274.371,369.882,274.371z"/>
	<path d="M413.488,265.632c0,0-9.873,11.898-4.494,23.051c5.385,11.168,18.697,15.635,18.697,15.635s11.99-15.959,7.289-26.615
		C430.283,267.041,413.488,265.632,413.488,265.632z"/>
	<g>
		<path d="M358.732,579.011c0,44.789,1.002,95.074-7.998,137.502c-66-30.643-63-30.643-63-101.355"/>
		<g>
			<path fill="none" d="M358.732,579.011c0,44.789,1.002,95.074-7.998,137.502c-66-30.643-63-30.643-63-101.355"/>
			<path fill="#FFFFFF" d="M354.275,578.588c0.012,45.799,1.406,92.416-7.998,137.502c2.004-1.259,4.008-2.518,6.012-3.776
				c-12.237-5.684-24.678-11.181-36.303-18.065c-6.617-3.918-13.4-8.595-17.457-15.309c-4.132-6.838-5.182-14.952-5.792-22.773
				c-1.052-13.469-0.548-27.091-0.545-40.586c0.002-5.732-8.913-6.611-8.915-0.846c-0.004,14.033-0.346,28.118,0.581,42.13
				c0.589,8.899,2.046,18.097,6.582,25.919c4.609,7.948,11.946,13.631,19.671,18.354c12.406,7.585,25.907,13.461,39.07,19.574
				c2.869,1.333,5.469-1.178,6.011-3.776c9.404-45.087,8.011-91.704,7.998-137.502C363.189,573.702,354.273,572.823,354.275,578.588
				L354.275,578.588z"/>
		</g>
	</g>
	<g>
		<path d="M300.343,588.117c-17.941,54.105-35.882,108.205-61.423,156.629c-50.369-57.793-47.521-56.85-19.191-142.273"/>
		<g>
			<path fill="none" d="M300.343,588.117c-17.941,54.105-35.882,108.205-61.423,156.629c-50.369-57.793-47.521-56.85-19.191-142.273
				"/>
			<path fill="#FFFFFF" d="M296.144,586.563c-17.518,52.829-34.941,106.188-60.891,155.615c2.36-0.109,4.721-0.22,7.082-0.329
				c-9.511-10.916-19.275-21.765-27.581-33.65c-5.199-7.439-9.299-15.578-10.49-24.65c-1.298-9.889,1.147-20.15,3.698-29.64
				c4.529-16.849,10.474-33.334,15.966-49.883c1.818-5.479-6.579-8.588-8.398-3.107c-5.606,16.892-11.62,33.715-16.243,50.912
				c-2.856,10.625-5.029,21.521-3.923,32.562c1.003,10.018,5.602,19.04,11.031,27.339c8.417,12.868,19.039,24.351,29.111,35.911
				c1.71,1.962,5.7,2.304,7.082-0.329c26.333-50.152,44.176-104.027,61.956-157.643C306.36,584.191,297.962,581.082,296.144,586.563
				L296.144,586.563z"/>
		</g>
	</g>
	<g>
		<path d="M312.179,429.042c-60.554-10.676-121.105-21.352-180.033-22.602c29.971,72.301,30.492,69.346,126.098,86.203"/>
		<g>
			<path fill="none" d="M312.179,429.042c-60.554-10.676-121.105-21.352-180.033-22.602c29.971,72.301,30.492,69.346,126.098,86.203
				"/>
			<path fill="#FFFFFF" d="M312.602,424.584c-59.553-10.498-119.426-21.213-180.033-22.602c-3.474-0.079-5.828,3.098-4.467,6.379
				c9.436,22.754,18.316,51.252,39.913,65.639c9.819,6.542,21.491,9.784,32.854,12.429c18.807,4.378,37.946,7.324,56.953,10.673
				c5.7,1.004,6.483-7.922,0.845-8.916c-18.243-3.213-36.626-6.018-54.69-10.154c-10.621-2.433-21.594-5.375-30.827-11.365
				c-8.062-5.23-13.783-12.954-18.44-21.229c-7.333-13.029-12.803-27.137-18.519-40.918c-1.489,2.126-2.978,4.252-4.467,6.379
				c60.607,1.389,120.48,12.103,180.033,22.602C317.457,434.504,318.241,425.579,312.602,424.584L312.602,424.584z"/>
		</g>
	</g>
	<g>
		<g>
			<path fill="#FFFFFF" d="M143.332,361.953L31.137,115.22C0.418,45.66-0.779,46.189,12.256,4.408
				c22.025,40.15,41.479,84.207,60.934,128.264l97.92,213.898"/>
			<g>
				<path fill="none" d="M143.332,361.953L31.137,115.22C0.418,45.66-0.779,46.189,12.256,4.408
					c22.025,40.15,41.479,84.207,60.934,128.264l97.92,213.898"/>
				<path d="M147.376,360.031c-18.217-40.062-36.434-80.123-54.65-120.184c-19.149-42.111-38.298-84.221-57.446-126.332
					c-5.006-11.008-9.84-22.11-14.594-33.23c-3.943-9.223-7.952-18.576-10.298-28.359c-3.801-15.854,1.366-30.884,6.067-45.965
					c-2.748,0.123-5.496,0.245-8.244,0.368C31.56,49.014,50.435,93.721,70.661,137.903c9.001,19.664,18.003,39.327,27.005,58.991
					c22.589,49.345,45.179,98.689,67.768,148.034c0.543,1.188,1.087,2.375,1.631,3.562c2.401,5.246,10.495,1.412,8.089-3.843
					c-19.56-42.728-39.12-85.455-58.68-128.183C105.38,192.233,94.287,168,83.193,143.767
					c-14.631-31.959-28.435-64.286-43.687-95.962C32.144,32.511,24.446,17.378,16.3,2.486C14.558-0.7,9.283-1.079,8.057,2.854
					c-4.127,13.24-8.7,26.666-7.981,40.708C0.885,59.388,8.6,74.928,14.779,89.199c7.832,18.085,15.984,36.015,24.141,53.953
					C63.959,198.218,89,253.284,114.04,308.35c8.416,18.508,16.832,37.016,25.248,55.524
					C141.676,369.126,149.768,365.291,147.376,360.031L147.376,360.031z"/>
			</g>
		</g>
		<g>
			<path d="M229.346,462.966c-12.637-20.623-44.824-91.67-49.266-116.006c-14.898,3.457-29.801,6.914-40.986,18.57
				c7.426,16.395,45.975,94.211,54.73,113.531C197.537,487.259,236.775,479.363,229.346,462.966"/>
			<g>
				<path fill="none" d="M229.346,462.966c-12.637-20.623-44.824-91.67-49.266-116.006c-14.898,3.457-29.801,6.914-40.986,18.57
					c7.426,16.395,45.975,94.211,54.73,113.531C197.537,487.259,236.775,479.363,229.346,462.966"/>
				<path d="M233.39,461.045c-10.764-17.701-19.162-37.069-27.445-56.012c-8.209-18.775-17.624-38.581-21.457-58.851
					c-0.435-2.299-2.786-4.188-5.186-3.631c-15.674,3.641-31.413,7.805-43.105,19.565c-1.45,1.458-2.035,3.383-1.148,5.335
					c14.023,30.859,29.581,61.054,44.316,91.578c3.041,6.299,6.077,12.602,9.029,18.942c2.659,5.71,5.958,8.221,12.414,8.757
					c11.626,0.966,33.938-4.807,33.921-19.656C234.727,464.946,234.197,463.002,233.39,461.045
					c-2.201-5.338-10.286-1.483-8.089,3.842c4.187,10.152-19.787,14.117-25.895,12.668c-2.346-0.557-1.466-0.27-2.422-2.345
					c-1.164-2.524-2.354-5.037-3.547-7.548c-3.2-6.739-6.451-13.454-9.704-20.167c-13.539-27.938-27.75-55.619-40.596-83.886
					c-0.383,1.778-0.766,3.557-1.148,5.335c10.61-10.671,24.646-14.272,38.867-17.576c-1.729-1.21-3.457-2.421-5.186-3.631
					c3.904,20.642,13.359,40.792,21.663,59.94c8.394,19.354,16.982,39.148,27.967,57.209
					C228.267,469.764,236.394,465.985,233.39,461.045L233.39,461.045z"/>
			</g>
		</g>
	</g>
</g>
</svg>
