<?xml version="1.0" encoding="utf-8"?>
<!-- Generator: Adobe Illustrator 12.0.0, SVG Export Plug-In . SVG Version: 6.00 Build 51448)  -->
<!DOCTYPE svg PUBLIC "-//W3C//DTD SVG 1.1//EN" "http://www.w3.org/Graphics/SVG/1.1/DTD/svg11.dtd" [
	<!ENTITY ns_svg "http://www.w3.org/2000/svg">
	<!ENTITY ns_xlink "http://www.w3.org/1999/xlink">
]>
<svg  version="1.1" id="Calque_1" xmlns="&ns_svg;" xmlns:xlink="&ns_xlink;" width="759.255" height="759.854"
	 viewBox="0 0 759.255 759.854" overflow="visible" enable-background="new 0 0 759.255 759.854" xml:space="preserve">
<g>
	<path fill-rule="evenodd" clip-rule="evenodd" fill="#9C141C" d="M642.761,7.857c27.524-13.874,20.688-7.637,36.396,5.242
		c21.389,17.531-47.403,113.702-85.56,101.273C597.209,66.095,628.271,15.159,642.761,7.857z"/>
	<path fill-rule="evenodd" clip-rule="evenodd" fill="#9C141C" d="M388.764,16.05c10.221,28.978,21.564,101.561-24.58,98.322
		C347.148,88.668,329.25,7.829,388.764,16.05z"/>
	<path fill-rule="evenodd" clip-rule="evenodd" fill="#9C141C" d="M303.417,128.713c-9.341,33.239-52.357,26.405-65.547,0
		C209.087,71.091,320.382,68.365,303.417,128.713z"/>
	<path fill-rule="evenodd" clip-rule="evenodd" fill="#9C141C" d="M519.854,524.039c-24.021-0.559-30.431-18.727-40.963-32.773
		c-15.603,3.518-20.585,17.65-40.968,16.385c-21.542-2.428-6.449,31.787-32.771,24.582c8.412-27.529-25.482-12.754-40.968-16.387
		c-12.178,6.941-11.856,26.383-16.386,40.969c-14.608-19.396,16.189-66.479-40.968-57.357c-1.641-31.131-34.453-31.09-32.772-65.547
		c-50.24,12.574-80.853,44.779-131.094,57.355c26.667-44.338,87.719-54.301,131.094-81.934c-5.64-32.949,7.849-46.771,8.193-73.74
		c-16.702-18.804-68.042-2.965-98.322-8.193c21.309-16.93,59.1-17.375,98.322-16.386c23.035-10.227,27.083-33.584,16.386-57.354
		c10.475,0.45,11.347,10.5,24.579,8.193c2.721-32.761-14.605-45.48-8.193-81.933c21.864,5.446,30.003,24.619,40.968,40.965
		c10.298-3.356,16.748-10.566,16.386-24.579c6.384,1.809,9.526,6.86,8.193,16.386C464.654,198.51,397.173,40.41,495.275,81.598
		c16.984,7.13,16.283,16.491,16.386,32.775c-3.441,15.665-2.963,35.265-24.576,32.772c-7.125,8.614-11.859,18.676-24.582,32.775
		c51.397,11.42,94.795,30.834,106.515,81.933c32.949,5.641,46.771-7.848,73.743-8.193c-13.629,21.878-56.536,14.474-73.743,32.772
		c-1.532,68.441,5.806,95.405-32.777,122.901c1.401,12.258-2.917,30.236,8.198,32.771c-11.423,13.158-40.435,8.727-49.163,24.582
		C503.696,485.572,523.483,493.105,519.854,524.039z"/>
	<path fill-rule="evenodd" clip-rule="evenodd" fill="#9C141C" d="M560.825,147.145
		C591.118,171.985,535.943,174.746,560.825,147.145L560.825,147.145z"/>
	<path fill-rule="evenodd" clip-rule="evenodd" fill="#9C141C" d="M749.27,220.884c17.286,2.513,8.66,15.924,0,16.389
		c-8.66,0.461-23.257,1.407-24.579-8.196C726.069,219.534,731.983,218.372,749.27,220.884z"/>
	<path fill-rule="evenodd" clip-rule="evenodd" fill="#9C141C" d="M708.305,237.273c1.556-9.304,8.222-4.549,8.193,0
		C714.942,246.574,708.276,241.82,708.305,237.273z"/>
	<path fill-rule="evenodd" clip-rule="evenodd" fill="#9C141C" d="M183.93,327.399C184.764,337.301,172.022,332.436,183.93,327.399
		L183.93,327.399z"/>
	<path fill-rule="evenodd" clip-rule="evenodd" fill="#9C141C" d="M85.611,335.592c3.008,24.861-26.687,17.007-40.968,24.579
		C43.455,337.136,64.712,336.541,85.611,335.592z"/>
	<path fill-rule="evenodd" clip-rule="evenodd" fill="#9C141C" d="M642.761,360.171c0.217-9.093,45.956-3.205,65.544-8.193
		c-2.609,21.727,46.896,10.463,32.771,24.583C726.274,392.045,642.544,369.264,642.761,360.171z"/>
	<path fill-rule="evenodd" clip-rule="evenodd" fill="#9C141C" d="M199.897,398.458c-12.073,32.979-66.239,39.39-68.1-9.286
		C129.943,340.492,211.973,365.481,199.897,398.458z"/>
	<path fill-rule="evenodd" clip-rule="evenodd" fill="#9C141C" d="M642.761,458.492c17.845,3.156,22.146,16.09,24.579,32.773
		c31.985-16.23,70.102,20.02,65.544,40.967c-4.559,20.947-37.74,31.988-49.158,8.193c3.703,27.465-35.017,31.943-49.158,32.775
		c-6.717,0.387-26.334-3.59-24.579-24.58c-24.311-3.002-42.555,0.217-49.163-32.775
		C554.216,482.852,595.181,450.078,642.761,458.492z"/>
	<path fill-rule="evenodd" clip-rule="evenodd" fill="#9C141C" d="M142.964,491.266
		C143.796,501.166,131.054,496.301,142.964,491.266L142.964,491.266z"/>
	<path fill-rule="evenodd" clip-rule="evenodd" fill="#9C141C" d="M298.637,507.65c0.464-4.996,1.225-9.697,8.193-8.193
		C306.366,504.455,305.605,509.154,298.637,507.65z"/>
	<path fill-rule="evenodd" clip-rule="evenodd" fill="#9C141C" d="M290.444,515.846c0.464-4.998,1.225-9.699,8.193-8.195
		C298.173,512.646,297.413,517.352,290.444,515.846z"/>
	<path fill-rule="evenodd" clip-rule="evenodd" fill="#9C141C" d="M101.997,540.426c-3.196,13.438-27.527,6.361-32.772-8.193
		C63.98,517.672,105.193,526.988,101.997,540.426z"/>
	<path fill-rule="evenodd" clip-rule="evenodd" fill="#9C141C" d="M290.444,515.846
		C291.276,525.746,278.534,520.883,290.444,515.846L290.444,515.846z"/>
	<path fill-rule="evenodd" clip-rule="evenodd" fill="#9C141C" d="M519.854,524.039
		C529.757,523.207,524.891,535.947,519.854,524.039L519.854,524.039z"/>
	<path fill-rule="evenodd" clip-rule="evenodd" fill="#9C141C" d="M3.678,573.201c-3.196-5.688-6.361-5.926,0-16.387
		s67.646-29.844,57.354,16.387C55.537,602.986,6.874,578.881,3.678,573.201z"/>
	<path fill-rule="evenodd" clip-rule="evenodd" fill="#9C141C" d="M405.152,556.814c2.823-9.891,21.799-6.627,24.579,0
		C437.16,574.533,399.726,575.799,405.152,556.814z"/>
	<path fill-rule="evenodd" clip-rule="evenodd" fill="#9C141C" d="M667.34,573.201c11.993,7.121,27.775,24.111,24.579,32.771
		s-21.389,16.602-32.772,0C647.752,589.365,664.765,584.277,667.34,573.201z"/>
	<path fill-rule="evenodd" clip-rule="evenodd" fill="#9C141C" d="M749.27,622.359c5.003,5.24,4.313,7.291,0,8.191
		c-9.64-1.287-23.257,1.414-24.579-8.191C736.382,619.168,744.278,617.117,749.27,622.359z"/>
	<path fill-rule="evenodd" clip-rule="evenodd" fill="#9C141C" d="M347.798,646.938c14.554,8.66,18.898,32.994,0,32.771
		C328.899,679.492,333.244,638.277,347.798,646.938z"/>
	<path fill-rule="evenodd" clip-rule="evenodd" fill="#9C141C" d="M577.211,646.938c12.928,14.381,37.62,17.002,40.971,40.965
		C587.939,690.836,583.939,667.527,577.211,646.938z"/>
	<path fill-rule="evenodd" clip-rule="evenodd" fill="#9C141C" d="M175.736,679.709
		C174.905,669.807,187.647,674.674,175.736,679.709L175.736,679.709z"/>
	<path fill-rule="evenodd" clip-rule="evenodd" fill="#9C141C" d="M175.736,679.709c-1,20.854-19.334,40.51-32.772,32.773
		C129.527,704.756,150.086,675.914,175.736,679.709z"/>
	<path fill-rule="evenodd" clip-rule="evenodd" fill="#9C141C" d="M126.579,753.453c-7.296,8.654-15.924,8.414-24.582,0
		c-8.657-8.416-11.982-46.715,16.386-40.971C139.233,713.313,133.872,744.797,126.579,753.453z"/>
</g>
</svg>
